<svg width="800" height="500" viewBox="0 0 800 500" fill="none" xmlns="http://www.w3.org/2000/svg">
  <!-- Background -->
  <rect width="800" height="500" fill="#F0F9FF"/>
  <!-- Top nav -->
  <rect width="800" height="56" fill="white"/>
  <rect width="800" height="1" y="56" fill="#BAE6FD"/>
  <circle cx="28" cy="28" r="10" fill="#0EA5E9"/>
  <rect x="46" y="22" width="80" height="12" rx="6" fill="#0EA5E9"/>
  <rect x="220" y="22" width="52" height="12" rx="6" fill="#94A3B8"/>
  <rect x="284" y="22" width="60" height="12" rx="6" fill="#94A3B8"/>
  <rect x="356" y="22" width="44" height="12" rx="6" fill="#0F172A"/>
  <!-- Sidebar -->
  <rect x="0" y="56" width="220" height="444" fill="white"/>
  <rect x="220" y="56" width="1" height="444" fill="#BAE6FD"/>
  <rect x="16" y="80" width="28" height="28" rx="6" fill="#F1F5F9"/>
  <rect x="52" y="88" width="72" height="12" rx="6" fill="#94A3B8"/>
  <rect x="16" y="122" width="28" height="28" rx="6" fill="#F1F5F9"/>
  <rect x="52" y="130" width="84" height="12" rx="6" fill="#94A3B8"/>
  <rect x="16" y="164" width="28" height="28" rx="6" fill="#F1F5F9"/>
  <rect x="52" y="172" width="56" height="12" rx="6" fill="#94A3B8"/>
  <rect x="16" y="206" width="28" height="28" rx="6" fill="#E0F2FE"/>
  <rect x="52" y="214" width="64" height="12" rx="6" fill="#0EA5E9"/>
  <!-- Stat cards row -->
  <rect x="238" y="74" width="130" height="90" rx="10" fill="white" stroke="#BAE6FD" stroke-width="1"/>
  <rect x="256" y="90" width="72" height="10" rx="5" fill="#94A3B8"/>
  <rect x="256" y="110" width="48" height="22" rx="6" fill="#0F172A"/>
  <rect x="256" y="140" width="60" height="10" rx="5" fill="#0EA5E9"/>

  <rect x="380" y="74" width="130" height="90" rx="10" fill="white" stroke="#BAE6FD" stroke-width="1"/>
  <rect x="398" y="90" width="80" height="10" rx="5" fill="#94A3B8"/>
  <rect x="398" y="110" width="36" height="22" rx="6" fill="#0F172A"/>
  <rect x="398" y="140" width="60" height="10" rx="5" fill="#FBBF24"/>

  <rect x="522" y="74" width="130" height="90" rx="10" fill="white" stroke="#BAE6FD" stroke-width="1"/>
  <rect x="540" y="90" width="64" height="10" rx="5" fill="#94A3B8"/>
  <rect x="540" y="110" width="44" height="22" rx="6" fill="#0F172A"/>
  <rect x="540" y="140" width="60" height="10" rx="5" fill="#F87171"/>

  <rect x="664" y="74" width="118" height="90" rx="10" fill="#0EA5E9"/>
  <rect x="682" y="90" width="64" height="10" rx="5" fill="white" opacity="0.7"/>
  <rect x="682" y="110" width="44" height="22" rx="6" fill="white"/>
  <rect x="682" y="140" width="60" height="10" rx="5" fill="white" opacity="0.8"/>

  <!-- Patient list table -->
  <rect x="238" y="178" width="544" height="306" rx="10" fill="white" stroke="#E2E8F0" stroke-width="1"/>
  <!-- Table header -->
  <rect x="238" y="178" width="544" height="44" rx="10" fill="#F8FAFC"/>
  <rect x="238" y="200" width="544" height="22" fill="#F8FAFC"/>
  <rect x="258" y="192" width="60" height="10" rx="5" fill="#64748B"/>
  <rect x="370" y="192" width="48" height="10" rx="5" fill="#64748B"/>
  <rect x="470" y="192" width="60" height="10" rx="5" fill="#64748B"/>
  <rect x="590" y="192" width="52" height="10" rx="5" fill="#64748B"/>
  <rect x="700" y="192" width="48" height="10" rx="5" fill="#64748B"/>
  <!-- Divider -->
  <rect x="238" y="222" width="544" height="1" fill="#E2E8F0"/>
  <!-- Row 1 -->
  <circle cx="262" cy="248" r="14" fill="#BAE6FD"/>
  <rect x="284" y="242" width="80" height="10" rx="5" fill="#1E293B"/>
  <rect x="284" y="258" width="56" height="8" rx="4" fill="#94A3B8"/>
  <rect x="370" y="243" width="64" height="10" rx="5" fill="#475569"/>
  <rect x="470" y="243" width="80" height="10" rx="5" fill="#475569"/>
  <rect x="590" y="240" width="60" height="18" rx="9" fill="#DCFCE7"/>
  <rect x="598" y="244" width="44" height="10" rx="5" fill="#16A34A"/>
  <rect x="714" y="243" width="24" height="10" rx="5" fill="#0EA5E9"/>
  <rect x="238" y="270" width="544" height="1" fill="#F1F5F9"/>
  <!-- Row 2 -->
  <circle cx="262" cy="296" r="14" fill="#F3E8FF"/>
  <rect x="284" y="290" width="72" height="10" rx="5" fill="#1E293B"/>
  <rect x="284" y="306" width="60" height="8" rx="4" fill="#94A3B8"/>
  <rect x="370" y="291" width="64" height="10" rx="5" fill="#475569"/>
  <rect x="470" y="291" width="72" height="10" rx="5" fill="#475569"/>
  <rect x="590" y="288" width="72" height="18" rx="9" fill="#FEF9C3"/>
  <rect x="598" y="292" width="56" height="10" rx="5" fill="#CA8A04"/>
  <rect x="714" y="291" width="24" height="10" rx="5" fill="#0EA5E9"/>
  <rect x="238" y="318" width="544" height="1" fill="#F1F5F9"/>
  <!-- Row 3 -->
  <circle cx="262" cy="344" r="14" fill="#FFF7ED"/>
  <rect x="284" y="338" width="84" height="10" rx="5" fill="#1E293B"/>
  <rect x="284" y="354" width="52" height="8" rx="4" fill="#94A3B8"/>
  <rect x="370" y="339" width="64" height="10" rx="5" fill="#475569"/>
  <rect x="470" y="339" width="80" height="10" rx="5" fill="#475569"/>
  <rect x="590" y="336" width="72" height="18" rx="9" fill="#FEE2E2"/>
  <rect x="598" y="340" width="56" height="10" rx="5" fill="#F87171"/>
  <rect x="714" y="339" width="24" height="10" rx="5" fill="#0EA5E9"/>
  <rect x="238" y="366" width="544" height="1" fill="#F1F5F9"/>
  <!-- Row 4 -->
  <circle cx="262" cy="392" r="14" fill="#E0F2FE"/>
  <rect x="284" y="386" width="64" height="10" rx="5" fill="#1E293B"/>
  <rect x="284" y="402" width="72" height="8" rx="4" fill="#94A3B8"/>
  <rect x="370" y="387" width="64" height="10" rx="5" fill="#475569"/>
  <rect x="470" y="387" width="72" height="10" rx="5" fill="#475569"/>
  <rect x="590" y="384" width="60" height="18" rx="9" fill="#DCFCE7"/>
  <rect x="598" y="388" width="44" height="10" rx="5" fill="#16A34A"/>
  <rect x="714" y="387" width="24" height="10" rx="5" fill="#0EA5E9"/>
  <rect x="238" y="414" width="544" height="1" fill="#F1F5F9"/>
  <!-- Row 5 -->
  <circle cx="262" cy="440" r="14" fill="#F0FDF4"/>
  <rect x="284" y="434" width="76" height="10" rx="5" fill="#1E293B"/>
  <rect x="284" y="450" width="64" height="8" rx="4" fill="#94A3B8"/>
  <rect x="370" y="435" width="64" height="10" rx="5" fill="#475569"/>
  <rect x="470" y="435" width="88" height="10" rx="5" fill="#475569"/>
  <rect x="590" y="432" width="72" height="18" rx="9" fill="#FEF9C3"/>
  <rect x="598" y="436" width="56" height="10" rx="5" fill="#CA8A04"/>
  <rect x="714" y="435" width="24" height="10" rx="5" fill="#0EA5E9"/>
</svg>
