<svg width="800" height="500" viewBox="0 0 800 500" fill="none" xmlns="http://www.w3.org/2000/svg">
  <!-- Background -->
  <rect width="800" height="500" fill="#F8FAFC"/>
  <!-- Top nav -->
  <rect width="800" height="56" fill="white"/>
  <rect width="800" height="1" y="56" fill="#E2E8F0"/>
  <circle cx="28" cy="28" r="10" fill="#10B981"/>
  <rect x="46" y="22" width="44" height="12" rx="6" fill="#10B981"/>
  <rect x="220" y="22" width="52" height="12" rx="6" fill="#94A3B8"/>
  <rect x="284" y="22" width="60" height="12" rx="6" fill="#94A3B8"/>
  <rect x="356" y="22" width="52" height="12" rx="6" fill="#1E293B"/>
  <circle cx="764" cy="28" r="16" fill="#E2E8F0"/>
  <circle cx="764" cy="28" r="12" fill="#10B981" opacity="0.3"/>
  <!-- Sidebar -->
  <rect x="0" y="56" width="220" height="444" fill="white"/>
  <rect x="220" y="56" width="1" height="444" fill="#E2E8F0"/>
  <!-- Sidebar items -->
  <rect x="16" y="80" width="28" height="28" rx="6" fill="#ECFDF5"/>
  <rect x="52" y="88" width="60" height="12" rx="6" fill="#10B981"/>
  <rect x="16" y="122" width="28" height="28" rx="6" fill="#F1F5F9"/>
  <rect x="52" y="130" width="72" height="12" rx="6" fill="#94A3B8"/>
  <rect x="16" y="164" width="28" height="28" rx="6" fill="#F1F5F9"/>
  <rect x="52" y="172" width="56" height="12" rx="6" fill="#94A3B8"/>
  <rect x="16" y="206" width="28" height="28" rx="6" fill="#F1F5F9"/>
  <rect x="52" y="214" width="64" height="12" rx="6" fill="#94A3B8"/>
  <rect x="16" y="248" width="28" height="28" rx="6" fill="#F1F5F9"/>
  <rect x="52" y="256" width="80" height="12" rx="6" fill="#94A3B8"/>
  <!-- Balance card -->
  <rect x="238" y="76" width="340" height="100" rx="12" fill="#10B981"/>
  <rect x="258" y="92" width="80" height="12" rx="6" fill="white" opacity="0.7"/>
  <rect x="258" y="114" width="140" height="24" rx="8" fill="white"/>
  <rect x="258" y="148" width="60" height="12" rx="6" fill="white" opacity="0.7"/>
  <rect x="330" y="148" width="48" height="12" rx="6" fill="white" opacity="0.9"/>
  <!-- Income/Expense summary cards -->
  <rect x="590" y="76" width="190" height="100" rx="12" fill="white" stroke="#E2E8F0" stroke-width="1"/>
  <rect x="608" y="92" width="70" height="10" rx="5" fill="#94A3B8"/>
  <rect x="608" y="110" width="90" height="18" rx="6" fill="#1E293B"/>
  <rect x="608" y="136" width="50" height="10" rx="5" fill="#10B981"/>
  <rect x="666" y="136" width="40" height="10" rx="5" fill="#94A3B8"/>
  <!-- Donut chart -->
  <rect x="238" y="192" width="220" height="220" rx="12" fill="white" stroke="#E2E8F0" stroke-width="1"/>
  <rect x="256" y="210" width="100" height="14" rx="7" fill="#1E293B"/>
  <rect x="256" y="232" width="140" height="10" rx="5" fill="#94A3B8"/>
  <!-- Donut segments -->
  <circle cx="348" cy="344" r="60" fill="none" stroke="#E2E8F0" stroke-width="28"/>
  <circle cx="348" cy="344" r="60" fill="none" stroke="#10B981" stroke-width="28" stroke-dasharray="113 264" stroke-dashoffset="0"/>
  <circle cx="348" cy="344" r="60" fill="none" stroke="#6366F1" stroke-width="28" stroke-dasharray="75 302" stroke-dashoffset="-113"/>
  <circle cx="348" cy="344" r="60" fill="none" stroke="#FBBF24" stroke-width="28" stroke-dasharray="50 327" stroke-dashoffset="-188"/>
  <circle cx="348" cy="344" r="60" fill="none" stroke="#F87171" stroke-width="28" stroke-dasharray="26 351" stroke-dashoffset="-238"/>
  <!-- Center text -->
  <circle cx="348" cy="344" r="32" fill="white"/>
  <rect x="326" y="338" width="44" height="12" rx="6" fill="#1E293B"/>
  <!-- Legend -->
  <circle cx="258" cy="270" r="5" fill="#10B981"/>
  <rect x="270" y="265" width="60" height="10" rx="5" fill="#475569"/>
  <circle cx="258" cy="292" r="5" fill="#6366F1"/>
  <rect x="270" y="287" width="52" height="10" rx="5" fill="#475569"/>
  <circle cx="258" cy="314" r="5" fill="#FBBF24"/>
  <rect x="270" y="309" width="44" height="10" rx="5" fill="#475569"/>
  <circle cx="258" cy="336" r="5" fill="#F87171"/>
  <rect x="270" y="331" width="48" height="10" rx="5" fill="#475569"/>
  <!-- Transactions list -->
  <rect x="470" y="192" width="310" height="280" rx="12" fill="white" stroke="#E2E8F0" stroke-width="1"/>
  <rect x="488" y="210" width="120" height="14" rx="7" fill="#1E293B"/>
  <rect x="688" y="210" width="72" height="14" rx="7" fill="#10B981" opacity="0.2"/>
  <rect x="700" y="213" width="48" height="8" rx="4" fill="#10B981"/>
  <!-- Transaction rows -->
  <rect x="488" y="240" width="274" height="1" fill="#F1F5F9"/>
  <circle cx="504" cy="265" r="14" fill="#ECFDF5"/>
  <rect x="526" y="258" width="80" height="10" rx="5" fill="#1E293B"/>
  <rect x="526" y="275" width="56" height="8" rx="4" fill="#94A3B8"/>
  <rect x="706" y="260" width="56" height="12" rx="6" fill="#F87171" opacity="0.15"/>
  <rect x="712" y="263" width="44" height="7" rx="3.5" fill="#F87171"/>
  <rect x="488" y="294" width="274" height="1" fill="#F1F5F9"/>
  <circle cx="504" cy="319" r="14" fill="#EFF6FF"/>
  <rect x="526" y="312" width="64" height="10" rx="5" fill="#1E293B"/>
  <rect x="526" y="329" width="44" height="8" rx="4" fill="#94A3B8"/>
  <rect x="706" y="314" width="56" height="12" rx="6" fill="#DCFCE7"/>
  <rect x="712" y="317" width="44" height="7" rx="3.5" fill="#10B981"/>
  <rect x="488" y="348" width="274" height="1" fill="#F1F5F9"/>
  <circle cx="504" cy="373" r="14" fill="#FFF7ED"/>
  <rect x="526" y="366" width="88" height="10" rx="5" fill="#1E293B"/>
  <rect x="526" y="383" width="60" height="8" rx="4" fill="#94A3B8"/>
  <rect x="706" y="368" width="56" height="12" rx="6" fill="#FEF9C3"/>
  <rect x="712" y="371" width="44" height="7" rx="3.5" fill="#CA8A04"/>
  <rect x="488" y="402" width="274" height="1" fill="#F1F5F9"/>
  <circle cx="504" cy="427" r="14" fill="#FDF2F8"/>
  <rect x="526" y="420" width="72" height="10" rx="5" fill="#1E293B"/>
  <rect x="526" y="437" width="52" height="8" rx="4" fill="#94A3B8"/>
  <rect x="706" y="422" width="56" height="12" rx="6" fill="#FEE2E2"/>
  <rect x="712" y="425" width="44" height="7" rx="3.5" fill="#F87171"/>
</svg>
