<svg width="800" height="500" viewBox="0 0 800 500" fill="none" xmlns="http://www.w3.org/2000/svg">
  <!-- Background -->
  <rect width="800" height="500" fill="#F1F5F9"/>
  <!-- Page header -->
  <rect x="0" y="0" width="800" height="56" fill="white"/>
  <rect x="0" y="56" width="800" height="1" fill="#E2E8F0"/>
  <rect x="32" y="20" width="80" height="16" rx="8" fill="#1E293B"/>
  <rect x="32" y="40" width="140" height="10" rx="5" fill="#94A3B8"/>
  <!-- Budget progress section -->
  <rect x="32" y="76" width="360" height="400" rx="12" fill="white" stroke="#E2E8F0" stroke-width="1"/>
  <rect x="52" y="96" width="100" height="14" rx="7" fill="#1E293B"/>
  <rect x="52" y="118" width="200" height="10" rx="5" fill="#94A3B8"/>
  <!-- Budget bars -->
  <rect x="52" y="148" width="60" height="10" rx="5" fill="#475569"/>
  <rect x="52" y="164" width="310" height="12" rx="6" fill="#F1F5F9"/>
  <rect x="52" y="164" width="240" height="12" rx="6" fill="#10B981"/>
  <rect x="52" y="184" width="48" height="8" rx="4" fill="#94A3B8"/>

  <rect x="52" y="210" width="52" height="10" rx="5" fill="#475569"/>
  <rect x="52" y="226" width="310" height="12" rx="6" fill="#F1F5F9"/>
  <rect x="52" y="226" width="180" height="12" rx="6" fill="#6366F1"/>
  <rect x="52" y="246" width="48" height="8" rx="4" fill="#94A3B8"/>

  <rect x="52" y="272" width="80" height="10" rx="5" fill="#475569"/>
  <rect x="52" y="288" width="310" height="12" rx="6" fill="#F1F5F9"/>
  <rect x="52" y="288" width="290" height="12" rx="6" fill="#F87171"/>
  <rect x="52" y="308" width="48" height="8" rx="4" fill="#94A3B8"/>
  <!-- Alert badge for over budget -->
  <rect x="284" y="304" width="78" height="18" rx="9" fill="#FEE2E2"/>
  <rect x="294" y="308" width="58" height="10" rx="5" fill="#F87171"/>

  <rect x="52" y="334" width="64" height="10" rx="5" fill="#475569"/>
  <rect x="52" y="350" width="310" height="12" rx="6" fill="#F1F5F9"/>
  <rect x="52" y="350" width="120" height="12" rx="6" fill="#FBBF24"/>
  <rect x="52" y="370" width="48" height="8" rx="4" fill="#94A3B8"/>

  <rect x="52" y="396" width="72" height="10" rx="5" fill="#475569"/>
  <rect x="52" y="412" width="310" height="12" rx="6" fill="#F1F5F9"/>
  <rect x="52" y="412" width="80" height="12" rx="6" fill="#10B981" opacity="0.5"/>
  <rect x="52" y="432" width="48" height="8" rx="4" fill="#94A3B8"/>

  <!-- Monthly bar chart -->
  <rect x="408" y="76" width="360" height="260" rx="12" fill="white" stroke="#E2E8F0" stroke-width="1"/>
  <rect x="428" y="96" width="120" height="14" rx="7" fill="#1E293B"/>
  <rect x="428" y="118" width="180" height="10" rx="5" fill="#94A3B8"/>
  <!-- Bars for 12 months -->
  <rect x="428" y="230" width="22" height="80" rx="3" fill="#10B981" opacity="0.4"/>
  <rect x="456" y="210" width="22" height="100" rx="3" fill="#10B981" opacity="0.5"/>
  <rect x="484" y="220" width="22" height="90" rx="3" fill="#10B981" opacity="0.6"/>
  <rect x="512" y="190" width="22" height="120" rx="3" fill="#10B981" opacity="0.7"/>
  <rect x="540" y="200" width="22" height="110" rx="3" fill="#10B981" opacity="0.8"/>
  <rect x="568" y="175" width="22" height="135" rx="3" fill="#10B981" opacity="0.9"/>
  <rect x="596" y="160" width="22" height="150" rx="3" fill="#10B981"/>
  <rect x="624" y="195" width="22" height="115" rx="3" fill="#10B981" opacity="0.85"/>
  <rect x="652" y="185" width="22" height="125" rx="3" fill="#10B981" opacity="0.9"/>
  <rect x="680" y="170" width="22" height="140" rx="3" fill="#10B981"/>
  <rect x="708" y="180" width="22" height="130" rx="3" fill="#6366F1"/>
  <rect x="736" y="155" width="22" height="155" rx="3" fill="#6366F1" opacity="0.7"/>
  <!-- X axis labels -->
  <rect x="428" y="318" width="20" height="8" rx="4" fill="#94A3B8"/>
  <rect x="456" y="318" width="20" height="8" rx="4" fill="#94A3B8"/>
  <rect x="484" y="318" width="20" height="8" rx="4" fill="#94A3B8"/>
  <rect x="512" y="318" width="20" height="8" rx="4" fill="#94A3B8"/>
  <rect x="540" y="318" width="20" height="8" rx="4" fill="#94A3B8"/>
  <rect x="568" y="318" width="20" height="8" rx="4" fill="#94A3B8"/>
  <rect x="596" y="318" width="20" height="8" rx="4" fill="#94A3B8"/>
  <rect x="624" y="318" width="20" height="8" rx="4" fill="#94A3B8"/>
  <rect x="652" y="318" width="20" height="8" rx="4" fill="#94A3B8"/>
  <rect x="680" y="318" width="20" height="8" rx="4" fill="#94A3B8"/>
  <rect x="708" y="318" width="20" height="8" rx="4" fill="#6366F1"/>
  <rect x="736" y="318" width="20" height="8" rx="4" fill="#6366F1"/>
  <!-- Insight cards -->
  <rect x="408" y="352" width="170" height="124" rx="12" fill="white" stroke="#E2E8F0" stroke-width="1"/>
  <rect x="428" y="372" width="80" height="10" rx="5" fill="#94A3B8"/>
  <rect x="428" y="390" width="110" height="18" rx="6" fill="#1E293B"/>
  <rect x="428" y="418" width="64" height="24" rx="8" fill="#DCFCE7"/>
  <rect x="436" y="424" width="48" height="12" rx="6" fill="#10B981"/>
  <rect x="428" y="450" width="130" height="10" rx="5" fill="#94A3B8"/>

  <rect x="596" y="352" width="172" height="124" rx="12" fill="white" stroke="#E2E8F0" stroke-width="1"/>
  <rect x="616" y="372" width="80" height="10" rx="5" fill="#94A3B8"/>
  <rect x="616" y="390" width="96" height="18" rx="6" fill="#1E293B"/>
  <rect x="616" y="418" width="64" height="24" rx="8" fill="#FEE2E2"/>
  <rect x="624" y="424" width="48" height="12" rx="6" fill="#F87171"/>
  <rect x="616" y="450" width="130" height="10" rx="5" fill="#94A3B8"/>
</svg>
