<svg width="800" height="500" viewBox="0 0 800 500" fill="none" xmlns="http://www.w3.org/2000/svg">
  <!-- Background -->
  <rect width="800" height="500" fill="#F8FAFC"/>
  <!-- Top nav -->
  <rect width="800" height="56" fill="white"/>
  <rect width="800" height="1" y="56" fill="#E2E8F0"/>
  <rect x="20" y="18" width="120" height="20" rx="6" fill="#1E293B"/>
  <rect x="20" y="38" width="80" height="10" rx="5" fill="#94A3B8"/>
  <!-- Sidebar -->
  <rect x="0" y="56" width="200" height="444" fill="white"/>
  <rect x="200" y="56" width="1" height="444" fill="#E2E8F0"/>
  <rect x="16" y="80" width="28" height="28" rx="6" fill="#F1F5F9"/>
  <rect x="52" y="88" width="68" height="12" rx="6" fill="#94A3B8"/>
  <rect x="16" y="122" width="28" height="28" rx="6" fill="#F1F5F9"/>
  <rect x="52" y="130" width="72" height="12" rx="6" fill="#94A3B8"/>
  <rect x="16" y="164" width="28" height="28" rx="6" fill="#F1F5F9"/>
  <rect x="52" y="172" width="52" height="12" rx="6" fill="#94A3B8"/>
  <rect x="16" y="206" width="28" height="28" rx="6" fill="#EFF6FF"/>
  <rect x="52" y="214" width="80" height="12" rx="6" fill="#3B82F6"/>
  <!-- Page header -->
  <rect x="220" y="72" width="160" height="18" rx="9" fill="#1E293B"/>
  <rect x="220" y="98" width="240" height="12" rx="6" fill="#94A3B8"/>
  <!-- Supplier performance bar chart -->
  <rect x="220" y="128" width="360" height="354" rx="10" fill="white" stroke="#E2E8F0" stroke-width="1"/>
  <rect x="240" y="148" width="120" height="14" rx="7" fill="#1E293B"/>
  <rect x="240" y="170" width="180" height="10" rx="5" fill="#94A3B8"/>
  <!-- Horizontal bars for suppliers -->
  <rect x="240" y="198" width="80" height="10" rx="5" fill="#475569"/>
  <rect x="240" y="214" width="280" height="18" rx="5" fill="#EFF6FF"/>
  <rect x="240" y="214" width="240" height="18" rx="5" fill="#3B82F6"/>
  <rect x="240" y="240" width="80" height="10" rx="5" fill="#475569"/>
  <rect x="240" y="256" width="280" height="18" rx="5" fill="#EFF6FF"/>
  <rect x="240" y="256" width="210" height="18" rx="5" fill="#3B82F6" opacity="0.8"/>
  <rect x="240" y="282" width="80" height="10" rx="5" fill="#475569"/>
  <rect x="240" y="298" width="280" height="18" rx="5" fill="#EFF6FF"/>
  <rect x="240" y="298" width="260" height="18" rx="5" fill="#3B82F6" opacity="0.9"/>
  <rect x="240" y="324" width="80" height="10" rx="5" fill="#475569"/>
  <rect x="240" y="340" width="280" height="18" rx="5" fill="#EFF6FF"/>
  <rect x="240" y="340" width="150" height="18" rx="5" fill="#F87171" opacity="0.7"/>
  <rect x="240" y="366" width="80" height="10" rx="5" fill="#475569"/>
  <rect x="240" y="382" width="280" height="18" rx="5" fill="#EFF6FF"/>
  <rect x="240" y="382" width="180" height="18" rx="5" fill="#FBBF24" opacity="0.7"/>
  <rect x="240" y="408" width="80" height="10" rx="5" fill="#475569"/>
  <rect x="240" y="424" width="280" height="18" rx="5" fill="#EFF6FF"/>
  <rect x="240" y="424" width="265" height="18" rx="5" fill="#3B82F6" opacity="0.85"/>
  <!-- Metric cards right column -->
  <rect x="594" y="128" width="188" height="100" rx="10" fill="white" stroke="#E2E8F0" stroke-width="1"/>
  <rect x="614" y="144" width="80" height="10" rx="5" fill="#94A3B8"/>
  <rect x="614" y="162" width="56" height="22" rx="6" fill="#1E293B"/>
  <rect x="614" y="192" width="100" height="10" rx="5" fill="#94A3B8"/>
  <rect x="614" y="208" width="64" height="12" rx="6" fill="#DCFCE7"/>
  <rect x="620" y="211" width="52" height="7" rx="3.5" fill="#16A34A"/>

  <rect x="594" y="240" width="188" height="100" rx="10" fill="white" stroke="#E2E8F0" stroke-width="1"/>
  <rect x="614" y="256" width="72" height="10" rx="5" fill="#94A3B8"/>
  <rect x="614" y="274" width="44" height="22" rx="6" fill="#1E293B"/>
  <rect x="614" y="304" width="100" height="10" rx="5" fill="#94A3B8"/>
  <rect x="614" y="320" width="64" height="12" rx="6" fill="#FEE2E2"/>
  <rect x="620" y="323" width="52" height="7" rx="3.5" fill="#F87171"/>

  <rect x="594" y="352" width="188" height="100" rx="10" fill="white" stroke="#E2E8F0" stroke-width="1"/>
  <rect x="614" y="368" width="88" height="10" rx="5" fill="#94A3B8"/>
  <rect x="614" y="386" width="60" height="22" rx="6" fill="#1E293B"/>
  <rect x="614" y="416" width="100" height="10" rx="5" fill="#94A3B8"/>
  <rect x="614" y="432" width="64" height="12" rx="6" fill="#FEF9C3"/>
  <rect x="620" y="435" width="52" height="7" rx="3.5" fill="#CA8A04"/>

  <!-- Reorder alerts panel -->
  <rect x="594" y="464" width="188" height="18" rx="9" fill="#EFF6FF" stroke="#BFDBFE" stroke-width="1"/>
  <rect x="608" y="469" width="80" height="8" rx="4" fill="#3B82F6"/>
  <rect x="694" y="469" width="24" height="8" rx="4" fill="#3B82F6" opacity="0.5"/>
</svg>
