<svg width="800" height="500" viewBox="0 0 800 500" fill="none" xmlns="http://www.w3.org/2000/svg">
  <!-- Background -->
  <rect width="800" height="500" fill="#F8FAFC"/>
  <!-- Top nav -->
  <rect width="800" height="56" fill="white"/>
  <rect width="800" height="1" y="56" fill="#E2E8F0"/>
  <rect x="20" y="18" width="120" height="20" rx="6" fill="#1E293B"/>
  <rect x="20" y="38" width="80" height="10" rx="5" fill="#94A3B8"/>
  <rect x="550" y="18" width="220" height="28" rx="8" fill="#F1F5F9"/>
  <rect x="564" y="25" width="12" height="12" rx="3" fill="#94A3B8"/>
  <rect x="582" y="29" width="120" height="8" rx="4" fill="#CBD5E1"/>
  <!-- Sidebar -->
  <rect x="0" y="56" width="200" height="444" fill="white"/>
  <rect x="200" y="56" width="1" height="444" fill="#E2E8F0"/>
  <rect x="16" y="80" width="28" height="28" rx="6" fill="#EFF6FF"/>
  <rect x="52" y="88" width="68" height="12" rx="6" fill="#3B82F6"/>
  <rect x="16" y="122" width="28" height="28" rx="6" fill="#F1F5F9"/>
  <rect x="52" y="130" width="72" height="12" rx="6" fill="#94A3B8"/>
  <rect x="16" y="164" width="28" height="28" rx="6" fill="#F1F5F9"/>
  <rect x="52" y="172" width="52" height="12" rx="6" fill="#94A3B8"/>
  <rect x="16" y="206" width="28" height="28" rx="6" fill="#F1F5F9"/>
  <rect x="52" y="214" width="80" height="12" rx="6" fill="#94A3B8"/>
  <!-- Stat cards row -->
  <rect x="218" y="74" width="140" height="72" rx="8" fill="white" stroke="#E2E8F0" stroke-width="1"/>
  <rect x="234" y="88" width="72" height="10" rx="5" fill="#94A3B8"/>
  <rect x="234" y="106" width="48" height="18" rx="6" fill="#1E293B"/>
  <rect x="234" y="130" width="64" height="10" rx="5" fill="#3B82F6"/>

  <rect x="370" y="74" width="140" height="72" rx="8" fill="white" stroke="#E2E8F0" stroke-width="1"/>
  <rect x="386" y="88" width="80" height="10" rx="5" fill="#94A3B8"/>
  <rect x="386" y="106" width="36" height="18" rx="6" fill="#1E293B"/>
  <rect x="386" y="130" width="60" height="10" rx="5" fill="#F87171"/>

  <rect x="522" y="74" width="140" height="72" rx="8" fill="white" stroke="#E2E8F0" stroke-width="1"/>
  <rect x="538" y="88" width="60" height="10" rx="5" fill="#94A3B8"/>
  <rect x="538" y="106" width="52" height="18" rx="6" fill="#1E293B"/>
  <rect x="538" y="130" width="64" height="10" rx="5" fill="#10B981"/>

  <rect x="674" y="74" width="108" height="72" rx="8" fill="#3B82F6"/>
  <rect x="690" y="88" width="76" height="10" rx="5" fill="white" opacity="0.7"/>
  <rect x="690" y="106" width="44" height="18" rx="6" fill="white"/>
  <rect x="690" y="130" width="64" height="10" rx="5" fill="white" opacity="0.8"/>

  <!-- Inventory table -->
  <rect x="218" y="160" width="564" height="326" rx="10" fill="white" stroke="#E2E8F0" stroke-width="1"/>
  <!-- Table header -->
  <rect x="218" y="160" width="564" height="42" rx="10" fill="#F8FAFC"/>
  <rect x="218" y="182" width="564" height="20" fill="#F8FAFC"/>
  <rect x="238" y="174" width="80" height="10" rx="5" fill="#64748B"/>
  <rect x="358" y="174" width="60" height="10" rx="5" fill="#64748B"/>
  <rect x="458" y="174" width="52" height="10" rx="5" fill="#64748B"/>
  <rect x="558" y="174" width="60" height="10" rx="5" fill="#64748B"/>
  <rect x="672" y="174" width="48" height="10" rx="5" fill="#64748B"/>
  <rect x="218" y="202" width="564" height="1" fill="#E2E8F0"/>
  <!-- Row 1 -->
  <rect x="238" y="218" width="96" height="10" rx="5" fill="#1E293B"/>
  <rect x="238" y="234" width="64" height="8" rx="4" fill="#94A3B8"/>
  <rect x="358" y="219" width="60" height="10" rx="5" fill="#475569"/>
  <rect x="458" y="219" width="44" height="10" rx="5" fill="#475569"/>
  <rect x="558" y="216" width="70" height="18" rx="9" fill="#DCFCE7"/>
  <rect x="566" y="220" width="54" height="10" rx="5" fill="#16A34A"/>
  <rect x="688" y="219" width="24" height="10" rx="5" fill="#3B82F6"/>
  <rect x="218" y="252" width="564" height="1" fill="#F1F5F9"/>
  <!-- Row 2 LOW STOCK -->
  <rect x="238" y="268" width="80" height="10" rx="5" fill="#1E293B"/>
  <rect x="238" y="284" width="56" height="8" rx="4" fill="#94A3B8"/>
  <rect x="358" y="269" width="60" height="10" rx="5" fill="#475569"/>
  <rect x="458" y="269" width="44" height="10" rx="5" fill="#475569"/>
  <rect x="558" y="266" width="80" height="18" rx="9" fill="#FEE2E2"/>
  <rect x="566" y="270" width="64" height="10" rx="5" fill="#F87171"/>
  <rect x="688" y="269" width="24" height="10" rx="5" fill="#3B82F6"/>
  <rect x="218" y="302" width="564" height="1" fill="#F1F5F9"/>
  <!-- Row 3 -->
  <rect x="238" y="318" width="104" height="10" rx="5" fill="#1E293B"/>
  <rect x="238" y="334" width="72" height="8" rx="4" fill="#94A3B8"/>
  <rect x="358" y="319" width="60" height="10" rx="5" fill="#475569"/>
  <rect x="458" y="319" width="44" height="10" rx="5" fill="#475569"/>
  <rect x="558" y="316" width="70" height="18" rx="9" fill="#DCFCE7"/>
  <rect x="566" y="320" width="54" height="10" rx="5" fill="#16A34A"/>
  <rect x="688" y="319" width="24" height="10" rx="5" fill="#3B82F6"/>
  <rect x="218" y="352" width="564" height="1" fill="#F1F5F9"/>
  <!-- Row 4 LOW STOCK -->
  <rect x="238" y="368" width="88" height="10" rx="5" fill="#1E293B"/>
  <rect x="238" y="384" width="60" height="8" rx="4" fill="#94A3B8"/>
  <rect x="358" y="369" width="60" height="10" rx="5" fill="#475569"/>
  <rect x="458" y="369" width="44" height="10" rx="5" fill="#475569"/>
  <rect x="558" y="366" width="80" height="18" rx="9" fill="#FEF9C3"/>
  <rect x="566" y="370" width="64" height="10" rx="5" fill="#CA8A04"/>
  <rect x="688" y="369" width="24" height="10" rx="5" fill="#3B82F6"/>
  <rect x="218" y="402" width="564" height="1" fill="#F1F5F9"/>
  <!-- Row 5 -->
  <rect x="238" y="418" width="76" height="10" rx="5" fill="#1E293B"/>
  <rect x="238" y="434" width="64" height="8" rx="4" fill="#94A3B8"/>
  <rect x="358" y="419" width="60" height="10" rx="5" fill="#475569"/>
  <rect x="458" y="419" width="44" height="10" rx="5" fill="#475569"/>
  <rect x="558" y="416" width="70" height="18" rx="9" fill="#DCFCE7"/>
  <rect x="566" y="420" width="54" height="10" rx="5" fill="#16A34A"/>
  <rect x="688" y="419" width="24" height="10" rx="5" fill="#3B82F6"/>
  <rect x="218" y="452" width="564" height="1" fill="#F1F5F9"/>
  <!-- Row 6 LOW STOCK -->
  <rect x="238" y="462" width="92" height="10" rx="5" fill="#1E293B"/>
  <rect x="358" y="463" width="60" height="10" rx="5" fill="#475569"/>
  <rect x="458" y="463" width="44" height="10" rx="5" fill="#475569"/>
  <rect x="558" y="460" width="80" height="18" rx="9" fill="#FEE2E2"/>
  <rect x="566" y="464" width="64" height="10" rx="5" fill="#F87171"/>
  <rect x="688" y="463" width="24" height="10" rx="5" fill="#3B82F6"/>
</svg>
