<svg width="800" height="500" viewBox="0 0 800 500" fill="none" xmlns="http://www.w3.org/2000/svg">
  <rect width="800" height="500" fill="#0F172A"/>
  <!-- Top nav -->
  <rect width="800" height="48" fill="#1E293B"/>
  <circle cx="24" cy="24" r="8" fill="#6366F1"/>
  <rect x="40" y="19" width="60" height="10" rx="5" fill="#6366F1"/>
  <rect x="120" y="19" width="48" height="10" rx="5" fill="#475569"/>
  <rect x="178" y="19" width="56" height="10" rx="5" fill="#475569"/>
  <rect x="244" y="19" width="64" height="10" rx="5" fill="#94A3B8"/>
  <!-- Sidebar -->
  <rect x="0" y="48" width="200" height="452" fill="#1E293B"/>
  <rect x="16" y="70" width="24" height="24" rx="4" fill="#334155"/>
  <rect x="48" y="76" width="80" height="12" rx="6" fill="#94A3B8"/>
  <rect x="16" y="106" width="24" height="24" rx="4" fill="#334155"/>
  <rect x="48" y="112" width="68" height="12" rx="6" fill="#94A3B8"/>
  <rect x="16" y="142" width="24" height="24" rx="4" fill="#6366F1" opacity="0.2"/>
  <rect x="48" y="148" width="56" height="12" rx="6" fill="#6366F1"/>
  <!-- Main content -->
  <rect x="220" y="64" width="140" height="18" rx="9" fill="#F8FAFC"/>
  <rect x="220" y="90" width="220" height="12" rx="6" fill="#475569"/>
  <!-- Sprint tabs -->
  <rect x="220" y="115" width="80" height="28" rx="6" fill="#6366F1"/>
  <rect x="224" y="123" width="60" height="10" rx="5" fill="white"/>
  <rect x="308" y="115" width="80" height="28" rx="6" fill="#1E293B"/>
  <rect x="316" y="123" width="56" height="10" rx="5" fill="#475569"/>
  <rect x="396" y="115" width="80" height="28" rx="6" fill="#1E293B"/>
  <rect x="404" y="123" width="60" height="10" rx="5" fill="#475569"/>
  <!-- Stat cards -->
  <rect x="220" y="156" width="130" height="72" rx="8" fill="#1E293B"/>
  <rect x="236" y="170" width="52" height="10" rx="5" fill="#94A3B8"/>
  <rect x="236" y="190" width="40" height="20" rx="6" fill="#F8FAFC"/>
  <rect x="284" y="195" width="30" height="10" rx="5" fill="#4ADE80"/>
  <rect x="362" y="156" width="130" height="72" rx="8" fill="#1E293B"/>
  <rect x="378" y="170" width="64" height="10" rx="5" fill="#94A3B8"/>
  <rect x="378" y="190" width="32" height="20" rx="6" fill="#F8FAFC"/>
  <rect x="418" y="195" width="38" height="10" rx="5" fill="#FBBF24"/>
  <rect x="504" y="156" width="130" height="72" rx="8" fill="#1E293B"/>
  <rect x="520" y="170" width="56" height="10" rx="5" fill="#94A3B8"/>
  <rect x="520" y="190" width="36" height="20" rx="6" fill="#F8FAFC"/>
  <rect x="564" y="195" width="28" height="10" rx="5" fill="#F87171"/>
  <rect x="646" y="156" width="130" height="72" rx="8" fill="#1E293B"/>
  <rect x="662" y="170" width="48" height="10" rx="5" fill="#94A3B8"/>
  <rect x="662" y="190" width="44" height="20" rx="6" fill="#F8FAFC"/>
  <rect x="714" y="195" width="24" height="10" rx="5" fill="#4ADE80"/>
  <!-- Velocity bar chart -->
  <rect x="220" y="242" width="350" height="240" rx="8" fill="#1E293B"/>
  <rect x="236" y="258" width="80" height="14" rx="7" fill="#F8FAFC"/>
  <rect x="236" y="280" width="120" height="10" rx="5" fill="#475569"/>
  <!-- Bars -->
  <rect x="250" y="380" width="28" height="80" rx="4" fill="#6366F1" opacity="0.5"/>
  <rect x="294" y="360" width="28" height="100" rx="4" fill="#6366F1" opacity="0.6"/>
  <rect x="338" y="370" width="28" height="90" rx="4" fill="#6366F1" opacity="0.7"/>
  <rect x="382" y="340" width="28" height="120" rx="4" fill="#6366F1" opacity="0.85"/>
  <rect x="426" y="315" width="28" height="145" rx="4" fill="#6366F1"/>
  <rect x="470" y="330" width="28" height="130" rx="4" fill="#6366F1" opacity="0.9"/>
  <!-- X labels -->
  <rect x="244" y="468" width="32" height="8" rx="4" fill="#475569"/>
  <rect x="288" y="468" width="32" height="8" rx="4" fill="#475569"/>
  <rect x="332" y="468" width="32" height="8" rx="4" fill="#475569"/>
  <rect x="376" y="468" width="32" height="8" rx="4" fill="#475569"/>
  <rect x="420" y="468" width="32" height="8" rx="4" fill="#475569"/>
  <rect x="464" y="468" width="32" height="8" rx="4" fill="#475569"/>
  <!-- Burndown chart -->
  <rect x="582" y="242" width="194" height="240" rx="8" fill="#1E293B"/>
  <rect x="598" y="258" width="72" height="14" rx="7" fill="#F8FAFC"/>
  <rect x="598" y="280" width="96" height="10" rx="5" fill="#475569"/>
  <!-- Ideal line (dashed) -->
  <line x1="610" y1="308" x2="762" y2="458" stroke="#334155" stroke-width="2" stroke-dasharray="5 4"/>
  <!-- Actual burndown -->
  <polyline points="610,308 645,328 678,360 712,372 742,405 762,440" stroke="#6366F1" stroke-width="2.5" fill="none" stroke-linejoin="round"/>
  <polygon points="610,308 645,328 678,360 712,372 742,405 762,440 762,458 610,458" fill="#6366F1" opacity="0.08"/>
  <circle cx="610" cy="308" r="4" fill="#6366F1"/>
  <circle cx="678" cy="360" r="4" fill="#6366F1"/>
  <circle cx="742" cy="405" r="4" fill="#6366F1"/>
  <circle cx="762" cy="440" r="4" fill="#818CF8"/>
</svg>
