<svg width="800" height="500" viewBox="0 0 800 500" fill="none" xmlns="http://www.w3.org/2000/svg">
  <!-- Background -->
  <rect width="800" height="500" fill="#0F172A"/>

  <!-- Top nav bar -->
  <rect width="800" height="48" fill="#1E293B"/>
  <circle cx="24" cy="24" r="8" fill="#6366F1"/>
  <rect x="40" y="19" width="60" height="10" rx="5" fill="#6366F1"/>
  <rect x="120" y="19" width="48" height="10" rx="5" fill="#475569"/>
  <rect x="178" y="19" width="56" height="10" rx="5" fill="#475569"/>
  <rect x="244" y="19" width="64" height="10" rx="5" fill="#475569"/>
  <!-- Nav right: avatar + search -->
  <circle cx="756" cy="24" r="14" fill="#6366F1"/>
  <rect x="724" y="19" width="10" height="10" rx="2" fill="#475569"/>
  <rect x="700" y="19" width="16" height="10" rx="3" fill="#475569"/>

  <!-- Sidebar -->
  <rect x="0" y="48" width="200" height="452" fill="#1E293B"/>
  <!-- Sidebar items -->
  <rect x="16" y="70" width="24" height="24" rx="4" fill="#334155"/>
  <rect x="48" y="76" width="80" height="12" rx="6" fill="#94A3B8"/>
  <rect x="16" y="106" width="24" height="24" rx="4" fill="#6366F1" opacity="0.2"/>
  <rect x="48" y="112" width="68" height="12" rx="6" fill="#6366F1"/>
  <rect x="16" y="142" width="24" height="24" rx="4" fill="#334155"/>
  <rect x="48" y="148" width="56" height="12" rx="6" fill="#94A3B8"/>
  <rect x="16" y="178" width="24" height="24" rx="4" fill="#334155"/>
  <rect x="48" y="184" width="72" height="12" rx="6" fill="#94A3B8"/>

  <rect x="16" y="230" width="168" height="1" fill="#334155"/>
  <rect x="16" y="250" width="60" height="10" rx="5" fill="#475569"/>
  <rect x="16" y="272" width="140" height="30" rx="6" fill="#334155"/>
  <rect x="28" y="281" width="80" height="10" rx="5" fill="#94A3B8"/>
  <rect x="16" y="310" width="140" height="30" rx="6" fill="#334155"/>
  <rect x="28" y="319" width="60" height="10" rx="5" fill="#94A3B8"/>
  <rect x="16" y="348" width="140" height="30" rx="6" fill="#334155"/>
  <rect x="28" y="357" width="96" height="10" rx="5" fill="#94A3B8"/>

  <!-- Main content area -->
  <!-- Header row -->
  <rect x="220" y="64" width="180" height="18" rx="9" fill="#F8FAFC"/>
  <rect x="220" y="90" width="260" height="12" rx="6" fill="#475569"/>
  <!-- Sprint selector + New Task button -->
  <rect x="572" y="60" width="100" height="30" rx="8" fill="#1E293B" stroke="#334155" stroke-width="1"/>
  <rect x="580" y="69" width="70" height="10" rx="5" fill="#94A3B8"/>
  <rect x="688" y="60" width="96" height="30" rx="8" fill="#6366F1"/>
  <rect x="700" y="69" width="70" height="10" rx="5" fill="white"/>

  <!-- Kanban columns -->
  <!-- Column 1: Backlog -->
  <rect x="220" y="112" width="130" height="360" rx="8" fill="#1E293B"/>
  <rect x="232" y="124" width="60" height="12" rx="6" fill="#94A3B8"/>
  <rect x="308" y="121" width="28" height="18" rx="9" fill="#334155"/>
  <rect x="312" y="124" width="20" height="12" rx="6" fill="#64748B"/>
  <!-- Cards -->
  <rect x="232" y="150" width="106" height="72" rx="6" fill="#0F172A"/>
  <rect x="240" y="160" width="88" height="10" rx="5" fill="#F1F5F9"/>
  <rect x="240" y="178" width="72" height="8" rx="4" fill="#475569"/>
  <rect x="240" y="194" width="36" height="16" rx="8" fill="#1D4ED8" opacity="0.3"/>
  <rect x="244" y="198" width="28" height="8" rx="4" fill="#60A5FA"/>
  <circle cx="320" cy="202" r="8" fill="#334155"/>

  <rect x="232" y="230" width="106" height="64" rx="6" fill="#0F172A"/>
  <rect x="240" y="240" width="80" height="10" rx="5" fill="#F1F5F9"/>
  <rect x="240" y="258" width="52" height="8" rx="4" fill="#475569"/>
  <rect x="240" y="274" width="40" height="14" rx="7" fill="#166534" opacity="0.3"/>
  <rect x="244" y="277" width="32" height="8" rx="4" fill="#4ADE80"/>
  <circle cx="320" cy="282" r="8" fill="#334155"/>

  <rect x="232" y="302" width="106" height="64" rx="6" fill="#0F172A"/>
  <rect x="240" y="312" width="64" height="10" rx="5" fill="#F1F5F9"/>
  <rect x="240" y="330" width="88" height="8" rx="4" fill="#475569"/>
  <rect x="240" y="346" width="40" height="14" rx="7" fill="#713F12" opacity="0.3"/>
  <rect x="244" y="349" width="32" height="8" rx="4" fill="#FBB F24"/>

  <!-- Column 2: In Progress -->
  <rect x="362" y="112" width="130" height="360" rx="8" fill="#1E293B"/>
  <rect x="374" y="124" width="72" height="12" rx="6" fill="#94A3B8"/>
  <rect x="450" y="121" width="28" height="18" rx="9" fill="#1D4ED8" opacity="0.3"/>
  <rect x="454" y="124" width="20" height="12" rx="6" fill="#60A5FA"/>
  <!-- Cards in progress -->
  <rect x="374" y="150" width="106" height="86" rx="6" fill="#0F172A"/>
  <rect x="382" y="160" width="90" height="10" rx="5" fill="#F1F5F9"/>
  <rect x="382" y="178" width="64" height="8" rx="4" fill="#475569"/>
  <!-- Progress bar -->
  <rect x="382" y="194" width="90" height="6" rx="3" fill="#1E293B"/>
  <rect x="382" y="194" width="58" height="6" rx="3" fill="#6366F1"/>
  <rect x="382" y="208" width="32" height="14" rx="7" fill="#6366F1" opacity="0.2"/>
  <rect x="386" y="211" width="24" height="8" rx="4" fill="#818CF8"/>
  <circle cx="464" cy="216" r="8" fill="#6366F1"/>

  <rect x="374" y="248" width="106" height="86" rx="6" fill="#0F172A"/>
  <rect x="382" y="258" width="76" height="10" rx="5" fill="#F1F5F9"/>
  <rect x="382" y="276" width="80" height="8" rx="4" fill="#475569"/>
  <rect x="382" y="292" width="90" height="6" rx="3" fill="#1E293B"/>
  <rect x="382" y="292" width="30" height="6" rx="3" fill="#6366F1"/>
  <rect x="382" y="306" width="40" height="14" rx="7" fill="#166534" opacity="0.3"/>
  <rect x="386" y="309" width="32" height="8" rx="4" fill="#4ADE80"/>

  <!-- Column 3: Review -->
  <rect x="504" y="112" width="130" height="360" rx="8" fill="#1E293B"/>
  <rect x="516" y="124" width="52" height="12" rx="6" fill="#94A3B8"/>
  <rect x="592" y="121" width="28" height="18" rx="9" fill="#713F12" opacity="0.3"/>
  <rect x="596" y="124" width="20" height="12" rx="6" fill="#FBBF24"/>
  <rect x="516" y="150" width="106" height="72" rx="6" fill="#0F172A"/>
  <rect x="524" y="160" width="80" height="10" rx="5" fill="#F1F5F9"/>
  <rect x="524" y="178" width="60" height="8" rx="4" fill="#475569"/>
  <rect x="524" y="194" width="44" height="14" rx="7" fill="#713F12" opacity="0.3"/>
  <rect x="528" y="197" width="36" height="8" rx="4" fill="#FBBF24"/>
  <circle cx="606" cy="202" r="8" fill="#FBBF24" opacity="0.6"/>

  <rect x="516" y="234" width="106" height="72" rx="6" fill="#0F172A"/>
  <rect x="524" y="244" width="68" height="10" rx="5" fill="#F1F5F9"/>
  <rect x="524" y="262" width="86" height="8" rx="4" fill="#475569"/>
  <rect x="524" y="278" width="44" height="14" rx="7" fill="#713F12" opacity="0.3"/>
  <rect x="528" y="281" width="36" height="8" rx="4" fill="#FBBF24"/>

  <!-- Column 4: Done -->
  <rect x="646" y="112" width="130" height="360" rx="8" fill="#1E293B"/>
  <rect x="658" y="124" width="36" height="12" rx="6" fill="#94A3B8"/>
  <rect x="728" y="121" width="28" height="18" rx="9" fill="#166534" opacity="0.3"/>
  <rect x="732" y="124" width="20" height="12" rx="6" fill="#4ADE80"/>
  <rect x="658" y="150" width="106" height="64" rx="6" fill="#0F172A" opacity="0.5"/>
  <rect x="666" y="160" width="76" height="10" rx="5" fill="#475569"/>
  <rect x="666" y="178" width="56" height="8" rx="4" fill="#334155"/>
  <rect x="666" y="194" width="44" height="14" rx="7" fill="#166534" opacity="0.2"/>
  <rect x="670" y="197" width="36" height="8" rx="4" fill="#4ADE80" opacity="0.6"/>

  <rect x="658" y="226" width="106" height="64" rx="6" fill="#0F172A" opacity="0.5"/>
  <rect x="666" y="236" width="60" height="10" rx="5" fill="#475569"/>
  <rect x="666" y="254" width="80" height="8" rx="4" fill="#334155"/>
  <rect x="666" y="270" width="44" height="14" rx="7" fill="#166534" opacity="0.2"/>
  <rect x="670" y="273" width="36" height="8" rx="4" fill="#4ADE80" opacity="0.6"/>

  <rect x="658" y="302" width="106" height="64" rx="6" fill="#0F172A" opacity="0.5"/>
  <rect x="666" y="312" width="72" height="10" rx="5" fill="#475569"/>
  <rect x="666" y="330" width="52" height="8" rx="4" fill="#334155"/>
  <rect x="666" y="346" width="44" height="14" rx="7" fill="#166534" opacity="0.2"/>
  <rect x="670" y="349" width="36" height="8" rx="4" fill="#4ADE80" opacity="0.6"/>
</svg>
